<!DOCTYPE svg PUBLIC "-//W3C//DTD SVG 1.1//EN" "http://www.w3.org/Graphics/SVG/1.1/DTD/svg11.dtd">
<!-- Uploaded to: SVG Repo, www.svgrepo.com, Transformed by: SVG Repo Mixer Tools -->
<svg fill="#a855f7" height="215px" width="215px" version="1.1" id="Layer_1" xmlns="http://www.w3.org/2000/svg" xmlns:xlink="http://www.w3.org/1999/xlink" viewBox="-33 -33 396.00 396.00" xml:space="preserve" stroke="#a855f7" stroke-width="0.00330001" transform="rotate(0)">
<g id="SVGRepo_bgCarrier" stroke-width="0"/>
<g id="SVGRepo_tracerCarrier" stroke-linecap="round" stroke-linejoin="round" stroke="#CCCCCC" stroke-width="0.660002"/>
<g id="SVGRepo_iconCarrier"> <path id="XMLID_517_" d="M298.684,128.855C296.264,123.467,290.908,120,285,120h-90.788l25.34-101.362 c1.676-6.7-1.441-13.678-7.548-16.903c-6.105-3.224-13.627-1.863-18.215,3.299l-160,180c-3.924,4.414-4.893,10.722-2.473,16.11 C33.737,206.534,39.094,210,45,210h90.789l-25.341,101.362c-1.675,6.7,1.441,13.678,7.548,16.903 c2.216,1.17,4.617,1.736,6.998,1.736c4.18,0,8.294-1.746,11.217-5.035l160-180C300.136,140.551,301.104,134.244,298.684,128.855z M154.366,259.387l15.187-60.748c1.121-4.482,0.114-9.229-2.729-12.869C163.981,182.128,159.62,180,155,180H78.403l97.232-109.386 l-15.187,60.748c-1.12,4.481-0.113,9.229,2.729,12.869C166.02,147.873,170.381,150,175,150h76.598L154.366,259.387z"/> </g>
</svg>